<mxfile host="app.diagrams.net" modified="2022-09-28T09:26:51.404Z" agent="5.0 (Macintosh; Intel Mac OS X 10_15_7) AppleWebKit/537.36 (KHTML, like Gecko) Chrome/105.0.0.0 Safari/537.36" etag="G58iYCmkgWsAI4YG3KsA" version="20.0.3" type="github">
  <diagram id="FAOLgXS9Ltin_LivjDwx" name="new KPI">
    <mxGraphModel dx="840" dy="649" grid="1" gridSize="10" guides="1" tooltips="1" connect="1" arrows="1" fold="1" page="1" pageScale="1" pageWidth="827" pageHeight="1169" math="0" shadow="0">
      <root>
        <mxCell id="0" />
        <mxCell id="1" parent="0" />
        <mxCell id="WSd_VsyWhp3XbF1seCIP-2" value="new KPI introduction" style="swimlane;html=1;childLayout=stackLayout;startSize=20;rounded=0;shadow=0;labelBackgroundColor=none;strokeWidth=1;fontFamily=Verdana;fontSize=8;align=center;" vertex="1" parent="1">
          <mxGeometry x="20" y="20" width="630" height="640" as="geometry" />
        </mxCell>
        <mxCell id="WSd_VsyWhp3XbF1seCIP-104" style="edgeStyle=orthogonalEdgeStyle;rounded=0;orthogonalLoop=1;jettySize=auto;html=1;exitX=0.5;exitY=1;exitDx=0;exitDy=0;entryX=0;entryY=0.5;entryDx=0;entryDy=0;" edge="1" parent="WSd_VsyWhp3XbF1seCIP-2" source="WSd_VsyWhp3XbF1seCIP-53" target="WSd_VsyWhp3XbF1seCIP-102">
          <mxGeometry relative="1" as="geometry" />
        </mxCell>
        <mxCell id="WSd_VsyWhp3XbF1seCIP-50" style="edgeStyle=orthogonalEdgeStyle;rounded=0;orthogonalLoop=1;jettySize=auto;html=1;exitX=1;exitY=0.5;exitDx=0;exitDy=0;entryX=0;entryY=0.5;entryDx=0;entryDy=0;" edge="1" parent="WSd_VsyWhp3XbF1seCIP-2" source="WSd_VsyWhp3XbF1seCIP-4" target="WSd_VsyWhp3XbF1seCIP-23">
          <mxGeometry relative="1" as="geometry" />
        </mxCell>
        <mxCell id="WSd_VsyWhp3XbF1seCIP-9" style="edgeStyle=orthogonalEdgeStyle;rounded=1;html=1;labelBackgroundColor=none;startArrow=none;startFill=0;startSize=5;endArrow=classicThin;endFill=1;endSize=5;jettySize=auto;orthogonalLoop=1;strokeWidth=1;fontFamily=Verdana;fontSize=8" edge="1" parent="WSd_VsyWhp3XbF1seCIP-2" target="WSd_VsyWhp3XbF1seCIP-25">
          <mxGeometry relative="1" as="geometry">
            <mxPoint x="120" y="205" as="sourcePoint" />
          </mxGeometry>
        </mxCell>
        <mxCell id="WSd_VsyWhp3XbF1seCIP-3" value="team" style="swimlane;html=1;startSize=20;fillColor=#FFFFCC;" vertex="1" parent="WSd_VsyWhp3XbF1seCIP-2">
          <mxGeometry y="20" width="210" height="620" as="geometry" />
        </mxCell>
        <mxCell id="WSd_VsyWhp3XbF1seCIP-4" value="propose&lt;br&gt;KPI" style="rounded=1;whiteSpace=wrap;html=1;shadow=0;labelBackgroundColor=none;strokeWidth=1;fontFamily=Verdana;fontSize=8;align=center;fillColor=#FFFFCC;" vertex="1" parent="WSd_VsyWhp3XbF1seCIP-3">
          <mxGeometry x="20" y="65" width="100" height="60" as="geometry" />
        </mxCell>
        <mxCell id="WSd_VsyWhp3XbF1seCIP-52" value="No" style="text;html=1;resizable=0;autosize=1;align=center;verticalAlign=middle;points=[];fillColor=none;strokeColor=none;rounded=0;" vertex="1" parent="WSd_VsyWhp3XbF1seCIP-3">
          <mxGeometry x="100" y="170" width="40" height="30" as="geometry" />
        </mxCell>
        <mxCell id="WSd_VsyWhp3XbF1seCIP-99" value="spec" style="whiteSpace=wrap;html=1;shape=mxgraph.basic.document;fillColor=#E6E6E6;" vertex="1" parent="WSd_VsyWhp3XbF1seCIP-3">
          <mxGeometry x="150" y="70" width="40" height="45" as="geometry" />
        </mxCell>
        <mxCell id="WSd_VsyWhp3XbF1seCIP-22" value="swd" style="swimlane;html=1;startSize=20;fillColor=#E6FFCC;" vertex="1" parent="WSd_VsyWhp3XbF1seCIP-2">
          <mxGeometry x="210" y="20" width="210" height="620" as="geometry" />
        </mxCell>
        <mxCell id="WSd_VsyWhp3XbF1seCIP-49" style="edgeStyle=orthogonalEdgeStyle;rounded=0;orthogonalLoop=1;jettySize=auto;html=1;exitX=0.5;exitY=1;exitDx=0;exitDy=0;" edge="1" parent="WSd_VsyWhp3XbF1seCIP-22" source="WSd_VsyWhp3XbF1seCIP-23" target="WSd_VsyWhp3XbF1seCIP-26">
          <mxGeometry relative="1" as="geometry" />
        </mxCell>
        <mxCell id="WSd_VsyWhp3XbF1seCIP-23" value="technical&lt;br&gt;review" style="rounded=1;whiteSpace=wrap;html=1;shadow=0;labelBackgroundColor=none;strokeWidth=1;fontFamily=Verdana;fontSize=8;align=center;fillColor=#E6FFCC;" vertex="1" parent="WSd_VsyWhp3XbF1seCIP-22">
          <mxGeometry x="30" y="65" width="100" height="60" as="geometry" />
        </mxCell>
        <mxCell id="WSd_VsyWhp3XbF1seCIP-54" style="edgeStyle=orthogonalEdgeStyle;rounded=0;orthogonalLoop=1;jettySize=auto;html=1;" edge="1" parent="WSd_VsyWhp3XbF1seCIP-22" source="WSd_VsyWhp3XbF1seCIP-26" target="WSd_VsyWhp3XbF1seCIP-53">
          <mxGeometry relative="1" as="geometry" />
        </mxCell>
        <mxCell id="WSd_VsyWhp3XbF1seCIP-26" value="well-&lt;br&gt;defined?" style="rhombus;whiteSpace=wrap;html=1;rounded=0;shadow=0;labelBackgroundColor=none;strokeWidth=1;fontFamily=Verdana;fontSize=8;align=center;fillColor=#E6FFCC;" vertex="1" parent="WSd_VsyWhp3XbF1seCIP-22">
          <mxGeometry x="40" y="170" width="80" height="60" as="geometry" />
        </mxCell>
        <mxCell id="WSd_VsyWhp3XbF1seCIP-53" value="implementation" style="rounded=1;whiteSpace=wrap;html=1;shadow=0;labelBackgroundColor=none;strokeWidth=1;fontFamily=Verdana;fontSize=8;align=center;fillColor=#E6FFCC;" vertex="1" parent="WSd_VsyWhp3XbF1seCIP-22">
          <mxGeometry x="30" y="290" width="100" height="60" as="geometry" />
        </mxCell>
        <mxCell id="WSd_VsyWhp3XbF1seCIP-97" value="Yes" style="text;html=1;resizable=0;autosize=1;align=center;verticalAlign=middle;points=[];fillColor=none;strokeColor=none;rounded=0;" vertex="1" parent="WSd_VsyWhp3XbF1seCIP-22">
          <mxGeometry x="80" y="240" width="40" height="30" as="geometry" />
        </mxCell>
        <mxCell id="WSd_VsyWhp3XbF1seCIP-101" value="updated&lt;br&gt;libraries" style="shape=document;whiteSpace=wrap;html=1;boundedLbl=1;fillColor=#E6E6E6;" vertex="1" parent="WSd_VsyWhp3XbF1seCIP-22">
          <mxGeometry x="110" y="420" width="80" height="50" as="geometry" />
        </mxCell>
        <mxCell id="WSd_VsyWhp3XbF1seCIP-24" value="devops" style="swimlane;html=1;startSize=20;fillColor=#E5CCFF;" vertex="1" parent="WSd_VsyWhp3XbF1seCIP-2">
          <mxGeometry x="420" y="20" width="210" height="620" as="geometry" />
        </mxCell>
        <mxCell id="zl3qaklotrizIEc8oi66-8" value="" style="rounded=1;whiteSpace=wrap;html=1;shadow=0;labelBackgroundColor=none;strokeWidth=1;fontFamily=Verdana;fontSize=8;align=center;fillColor=#E6E6E6;" vertex="1" parent="WSd_VsyWhp3XbF1seCIP-24">
          <mxGeometry x="20" y="80" width="160" height="220" as="geometry" />
        </mxCell>
        <mxCell id="WSd_VsyWhp3XbF1seCIP-105" style="edgeStyle=orthogonalEdgeStyle;rounded=0;orthogonalLoop=1;jettySize=auto;html=1;exitX=0.5;exitY=1;exitDx=0;exitDy=0;" edge="1" parent="WSd_VsyWhp3XbF1seCIP-24" source="WSd_VsyWhp3XbF1seCIP-102" target="WSd_VsyWhp3XbF1seCIP-103">
          <mxGeometry relative="1" as="geometry" />
        </mxCell>
        <mxCell id="WSd_VsyWhp3XbF1seCIP-102" value="update&lt;br&gt;global&lt;br&gt;polling" style="rounded=1;whiteSpace=wrap;html=1;shadow=0;labelBackgroundColor=none;strokeWidth=1;fontFamily=Verdana;fontSize=8;align=center;fillColor=#E5CCFF;" vertex="1" parent="WSd_VsyWhp3XbF1seCIP-24">
          <mxGeometry x="50" y="410" width="100" height="60" as="geometry" />
        </mxCell>
        <mxCell id="WSd_VsyWhp3XbF1seCIP-103" value="provision&lt;br&gt;dashboard" style="rounded=1;whiteSpace=wrap;html=1;shadow=0;labelBackgroundColor=none;strokeWidth=1;fontFamily=Verdana;fontSize=8;align=center;fillColor=#E5CCFF;" vertex="1" parent="WSd_VsyWhp3XbF1seCIP-24">
          <mxGeometry x="50" y="520" width="100" height="60" as="geometry" />
        </mxCell>
        <mxCell id="zl3qaklotrizIEc8oi66-6" value="provision&lt;br&gt;influx&lt;br&gt;resources" style="rounded=1;whiteSpace=wrap;html=1;shadow=0;labelBackgroundColor=none;strokeWidth=1;fontFamily=Verdana;fontSize=8;align=center;fillColor=#E5CCFF;" vertex="1" parent="WSd_VsyWhp3XbF1seCIP-24">
          <mxGeometry x="50" y="100" width="100" height="60" as="geometry" />
        </mxCell>
        <mxCell id="zl3qaklotrizIEc8oi66-7" value="provision&lt;br&gt;grafana" style="rounded=1;whiteSpace=wrap;html=1;shadow=0;labelBackgroundColor=none;strokeWidth=1;fontFamily=Verdana;fontSize=8;align=center;fillColor=#E5CCFF;" vertex="1" parent="WSd_VsyWhp3XbF1seCIP-24">
          <mxGeometry x="50" y="210" width="100" height="60" as="geometry" />
        </mxCell>
        <mxCell id="WSd_VsyWhp3XbF1seCIP-51" style="edgeStyle=orthogonalEdgeStyle;rounded=0;orthogonalLoop=1;jettySize=auto;html=1;exitX=0;exitY=0.5;exitDx=0;exitDy=0;entryX=0.5;entryY=1;entryDx=0;entryDy=0;" edge="1" parent="WSd_VsyWhp3XbF1seCIP-2" source="WSd_VsyWhp3XbF1seCIP-26" target="WSd_VsyWhp3XbF1seCIP-4">
          <mxGeometry relative="1" as="geometry" />
        </mxCell>
      </root>
    </mxGraphModel>
  </diagram>
</mxfile>
